<svg width="480" height="480" viewBox="0 0 480 480" fill="none" xmlns="http://www.w3.org/2000/svg">
<rect width="480" height="480" fill="#F1F5F9"/>
<path d="M237.9 365.6C212 365.6 189.95 359.883 171.75 348.45C153.783 336.783 140.133 321.267 130.8 301.9C121.467 282.533 116.8 260.95 116.8 237.15C116.8 219.65 119.367 203.2 124.5 187.8C129.867 172.167 137.683 158.517 147.95 146.85C158.217 135.183 170.817 126.083 185.75 119.55C200.917 112.783 218.3 109.4 237.9 109.4C270.8 109.4 296.467 118.15 314.9 135.65C333.567 152.917 344.767 176.25 348.5 205.65H294.6C293.433 197.717 291.45 190.717 288.65 184.65C285.85 178.35 282.117 173.1 277.45 168.9C273.017 164.467 267.533 161.2 261 159.1C254.467 156.767 246.767 155.6 237.9 155.6C222.033 155.6 208.967 159.567 198.7 167.5C188.667 175.2 181.317 185.35 176.65 197.95C171.983 210.317 169.65 223.383 169.65 237.15C169.65 251.15 171.983 264.45 176.65 277.05C181.317 289.417 188.667 299.567 198.7 307.5C208.967 315.433 222.033 319.4 237.9 319.4C248.167 319.4 257.15 318 264.85 315.2C272.783 312.167 279.2 307.967 284.1 302.6C289.233 297.233 292.85 290.7 294.95 283C297.283 275.067 297.983 266.2 297.05 256.4L313.15 268.3H237.9V224.2H349.55C351.883 254.3 348.967 279.967 340.8 301.2C332.633 322.2 319.8 338.183 302.3 349.15C285.033 360.117 263.567 365.6 237.9 365.6Z" fill="#0B1220"/>
<rect x="236" y="223" width="29" height="47" rx="5" fill="#0B7D4C"/>
<rect x="293" y="201" width="56" height="7" rx="3.5" fill="#0B7D4C"/>
<path d="M249 238C249 236.343 250.343 235 252 235H273C274.657 235 276 236.343 276 238V254C276 255.657 274.657 257 273 257H252C250.343 257 249 255.657 249 254V238Z" fill="#34C469"/>
</svg>
